<svg width="1280" height="1156" viewBox="0 0 1280 1156" fill="none" xmlns="http://www.w3.org/2000/svg">
<rect width="1265" height="1156" fill="black"/>
<path d="M636.079 669.565C636.079 669.565 649.455 694.093 672.014 693.174C672.014 693.174 678.488 693.229 676.496 699.789C676.496 699.789 665.4 713.336 639.682 703.462C613.964 693.595 606.859 686.739 606.859 686.739L636.079 669.565Z" fill="#E60000"/>
<path d="M663.345 669.029C663.345 669.029 645.977 693.571 622.656 689.572C622.656 689.572 615.925 688.77 617.053 696.077C617.053 696.077 626.671 712.115 654.801 704.948C682.931 697.789 691.289 691.377 691.289 691.377L663.345 669.029Z" fill="#E60000"/>
<path d="M100.985 85L81.6794 104.313L440.676 463.311L459.99 443.998L181.19 165.199L193.465 152.953L185.304 144.824V144.797L156.852 116.347H156.826L148.7 108.191H148.674L148.649 108.165L142.401 114.407L142.46 114.434L136.424 120.437L100.985 85ZM150.612 122.59L179.064 151.04L173.063 157.071L144.585 128.593L150.612 122.59ZM76.3579 109.546L67.1686 118.737L67.1176 118.684L64.9159 120.889L53.9413 109.891L18.8501 144.983L29.9266 156.061L18 167.989L376.971 526.957L392.324 511.604L64.3293 183.609L61.456 186.478L50.8046 175.799L60.4784 166.129L71.1299 176.808L68.2566 179.677L396.446 507.702L415.599 488.576L87.443 160.338L84.7822 162.968L74.0287 152.235L83.9831 142.274L94.7451 153.033L91.9823 155.769L420.215 484.002L435.516 468.701L76.3579 109.546ZM465.617 449.232L446.788 469.185L581.202 601.61L581.253 601.525C581.849 602.019 618.725 632.706 575.753 677.455C527.605 727.601 494.231 691.719 494.231 691.719L492.556 690.393L403.085 602.673C387.793 588.145 404.837 572.572 404.837 572.572L373.97 542.819C373.97 542.819 350.355 574.782 358.006 602.988C364.866 628.312 394.687 658.217 394.687 658.217C394.687 658.217 386.152 669.132 371.871 688.982C353.016 715.181 366.898 754.684 398.572 779.489C430.237 804.295 472.817 793.38 472.817 793.38C472.817 793.38 484.863 789.053 484.617 790.09C480.936 805.374 458.205 850.522 458.205 850.522C429.744 905.641 390.734 943.767 379.045 953.619C367.357 963.48 360.692 963.438 361.534 986.696C362.384 1009.95 434.19 1101.62 465.379 1107.83C479.363 1110.61 502.468 1107.2 569.964 996.684C625.152 906.33 627.396 758.314 627.396 758.314C625.143 729.216 599.343 718.624 599.343 718.624C582.86 725.586 577.479 727.975 577.479 727.975L573.977 716.949L599.131 698.332L619.269 677.956C619.269 677.956 636.738 657.163 635.318 638.427C633.899 619.692 614.219 600.199 614.219 600.199L595.705 581.285L465.617 449.232ZM402.847 666.531L440.863 704.997C440.863 704.997 441.263 717.281 426.25 731.485C411.238 745.69 395.622 742.426 395.622 742.426L395.596 748.725C395.596 748.725 409.716 756.146 423.011 751.377C436.298 746.617 445.929 733.5 445.938 733.5L467.981 730.924L480.706 742.851C480.706 742.851 476.66 764.043 467.028 769.416C457.388 774.797 418.047 783.111 394.61 758.05C371.174 732.99 368.13 713.107 382.735 692.008C397.348 670.909 402.847 666.531 402.847 666.531ZM504.347 768.676L514.072 777.679C514.072 777.679 495.744 841.928 461.154 895.015C426.565 948.111 389.484 983.908 389.484 983.908L389.059 990.496C389.059 990.496 412.343 1049.25 476.481 1082.12C476.481 1082.12 550.268 1001.4 566.59 955.668L572.702 959.145C572.702 959.145 557.91 1006.6 487.796 1083.42C487.796 1083.42 480.783 1094.29 475.657 1092.45C470.539 1090.6 442.563 1079.73 416.763 1049.73C390.972 1019.74 380.269 1001.98 378.272 986.373C378.272 986.373 374.395 981.451 384.885 970.859C395.375 960.276 472.367 882.323 504.347 768.676ZM452.492 997.696C460.449 997.696 466.892 1004.14 466.892 1012.09C466.892 1020.04 460.449 1026.49 452.492 1026.49C444.544 1026.49 438.1 1020.04 438.1 1012.09C438.1 1004.14 444.544 997.696 452.492 997.696ZM441.076 474.311L382.871 532.516L414.774 564.42L472.979 506.215L441.076 474.311ZM480.145 512.777L466.654 526.294L520.184 579.823L511.734 588.247L458.128 534.641L426.386 566.409L479.992 620.015L469.494 630.513L415.964 576.958L402.448 590.474L456.003 644.004L455.952 644.029L497.869 685.955L575.728 608.088L533.811 566.171L533.675 566.307L480.145 512.777ZM577.751 618.162L507.11 689.296C507.11 689.296 531.889 704.81 561.549 674.632C596.393 639.175 577.751 618.162 577.751 618.162Z" fill="#E60000"/>
<path d="M1165.56 85.85L1130.09 121.314L1124.05 115.284L1124.11 115.257L1117.87 109.015L1117.84 109.067L1117.81 109.041L1109.66 117.197V117.223L1081.21 145.674H1081.18L1073.02 153.83L1085.3 166.076L806.372 445.008L825.677 464.323L1184.84 105.136L1165.56 85.85ZM1115.9 123.44L1121.93 129.469L1093.45 157.921L1087.42 151.917L1115.9 123.44ZM1190.18 110.396L830.837 469.712L846.138 485.014L1174.53 156.619L1171.77 153.883L1182.53 143.124L1192.49 153.085L1181.73 163.818L1179.07 161.188L850.754 489.587L869.907 508.714L1198.26 180.527L1195.38 177.658L1206.04 166.979L1215.74 176.649L1205.06 187.328L1202.19 184.459L874.029 512.616L889.382 527.968L1248.54 168.839L1236.59 156.911L1247.69 145.807L1212.6 110.715L1201.6 121.712L1199.4 119.507L1199.35 119.587L1190.18 110.396ZM800.736 450.245L670.563 582.373L652.048 601.287C652.048 601.287 632.361 620.771 630.932 639.515C629.504 658.26 646.582 682.818 646.582 682.818L692.274 718.046L688.763 729.071C688.763 729.063 683.416 726.699 666.925 719.746C666.925 719.746 641.108 730.321 638.847 759.427C638.847 759.427 641.048 907.486 696.227 997.849C763.715 1108.38 786.828 1111.78 800.812 1109C832.01 1102.77 903.859 1011.07 904.709 987.809C905.567 964.551 898.894 964.594 887.206 954.733C875.517 944.88 836.498 906.763 808.038 851.635C808.038 851.635 785.341 806.488 781.66 791.203C781.413 790.175 793.433 794.468 793.433 794.468C793.433 794.468 836.022 805.391 867.705 780.577C899.387 755.755 913.312 716.252 894.457 690.044C880.175 670.195 871.641 659.254 871.641 659.254C871.641 659.254 901.479 629.357 908.347 604.025C916.006 575.811 892.383 543.831 892.383 543.831L861.491 573.583C861.491 573.583 878.535 589.174 863.242 603.71L773.72 691.447L772.045 692.807C772.045 692.807 738.671 728.714 690.514 678.568C647.551 633.828 684.428 603.106 685.014 602.613L685.099 602.698L819.573 470.188L800.736 450.245ZM863.48 667.593C863.48 667.593 868.954 671.971 883.567 693.07C898.172 714.178 895.137 734.07 871.692 759.138C848.247 784.207 808.888 775.885 799.248 770.504C789.608 765.131 785.57 743.947 785.57 743.947L798.296 732.012L820.338 734.597C820.338 734.588 830.004 747.679 843.291 752.448C856.586 757.209 870.68 749.787 870.68 749.787V743.488C870.68 743.488 855.039 746.753 840.026 732.548C825.014 718.343 825.413 706.06 825.413 706.06L863.48 667.593ZM761.896 769.764C793.859 883.437 870.876 961.389 881.357 971.972C891.847 982.564 887.979 987.495 887.979 987.495C885.973 1003.1 875.262 1020.87 849.454 1050.88C823.645 1080.88 795.661 1091.77 790.535 1093.62C785.409 1095.46 778.396 1084.58 778.396 1084.58C708.29 1007.77 693.49 960.318 693.49 960.318L699.602 956.833C715.915 1002.58 789.71 1083.28 789.71 1083.28C853.874 1050.4 877.166 991.609 877.166 991.609L876.767 985.021C876.767 985.021 839.678 949.233 805.097 896.137C770.507 843.033 752.171 778.767 752.171 778.767L761.896 769.764ZM814.473 997.696C822.421 997.696 828.865 1004.14 828.865 1012.09C828.865 1020.04 822.421 1026.49 814.473 1026.49C806.516 1026.49 800.073 1020.04 800.073 1012.09C800.073 1004.14 806.516 997.696 814.473 997.696ZM825.277 475.323L793.349 507.226L851.579 565.457L883.482 533.519L825.277 475.323ZM786.174 513.814L732.619 567.369L732.491 567.233L690.574 609.176L768.433 687.018L810.35 645.092L810.325 645.066L863.879 591.511L850.355 577.995L796.8 631.55L786.335 621.077L839.975 567.446L808.199 535.678L754.568 589.31L746.118 580.885L799.699 527.305L786.174 513.814ZM688.525 619.249C688.525 619.249 669.875 640.263 704.728 675.72C734.387 705.898 759.158 690.384 759.158 690.393L688.525 619.249Z" fill="#E60000"/>
</svg>
