<svg id="Слой_1" data-name="Слой 1" xmlns="http://www.w3.org/2000/svg" viewBox="0 0 520.69 340.29">
    <rect x="492.21" width="28.48" height="338.81"/>
    <polygon
            points="343.31 224.93 293.48 284.88 293.32 284.75 271.17 266.33 271.06 266.24 281.58 253.58 305.39 224.93 343.31 224.93"/>
    <polygon
            points="514.76 18.64 408.97 145.93 398.16 158.93 387.36 171.93 349.44 171.93 360.25 158.93 371.05 145.93 492.34 0 514.76 18.64"/>
    <path d="M316.13,91.21,296,115.42a139.59,139.59,0,0,0-15.65-26.8L299.19,66A168.58,168.58,0,0,1,316.13,91.21Z"/>
    <polygon points="387.36 171.93 364.92 198.93 327 198.93 335.93 188.19 349.44 171.93 387.36 171.93"/>
    <path d="M305.39,224.93l-23.81,28.65a139.85,139.85,0,0,1-113.22,57.93A139.55,139.55,0,1,1,296,115.42l20.11-24.21A168.19,168.19,0,1,0,328.2,224.93Z"/>
    <rect x="211.13" y="171.93" width="309.38" height="27"/>
    <rect x="195.82" y="171.93" width="11.72" height="27"/>
    <rect x="182.38" y="171.93" width="7.78" height="27"/>
    <rect x="168.94" y="171.93" width="4.59" height="27"/>
    <rect x="157.14" y="171.93" width="1.64" height="27"/>
</svg>