<svg width="44" height="44" viewBox="0 0 44 44" fill="none" xmlns="http://www.w3.org/2000/svg">
<g clip-path="url(#clip0_100_33)">
<path d="M2 42.5L4 32C6 35.5 9.5 38.5 12.5 40L2 42.5Z" fill="#242424"/>
<path fill-rule="evenodd" clip-rule="evenodd" d="M22 44C34.1503 44 44 34.1503 44 22C44 9.84974 34.1503 0 22 0C9.84974 0 0 9.84974 0 22C0 34.1503 9.84974 44 22 44ZM17.8169 16.7957C18.1987 14.4186 14.7088 10.3435 14.7088 10.3435C13.903 9.89069 11.9461 9.52846 10.5647 11.7018C8.83797 14.4186 8.14729 18.1541 10.5647 21.8896C12.9821 25.6251 19.5438 32.7565 25.76 33.7753C31.9762 34.794 34.3936 32.0773 34.7389 31.0585C35.0843 30.0398 35.4296 29.021 33.3576 27.6626C31.6999 26.5759 29.5588 25.2855 28.1774 25.2855C27.2059 25.4447 26.6899 26.1265 26.2022 26.7709C25.6498 27.5008 25.1338 28.1826 24.0333 28.0022C21.2869 27.5521 16.0904 22.5688 15.745 20.5312C15.5507 19.3847 16.1476 18.8654 16.7538 18.338C17.2249 17.9282 17.7017 17.5135 17.8169 16.7957Z" fill="#242424"/>
</g>
<defs>
<clipPath id="clip0_100_33">
<rect width="44" height="44" fill="white"/>
</clipPath>
</defs>
</svg>
